# xmcd CD database file generated by OrangeCD 4.3
#
# Track frame offsets:
#	150
#	25164
#	54200
#	75186
#	96564
#	119012
#	150389
#	174131
#	205810
#	230691
#	263472
#	291328
#	303381
#
# Disc length: 4329 seconds
#
# Revision: 0
# Processed by: cddbd v1.4PL0 Copyright (c) Steve Scherf et al.
# Submitted via: OrangeCD 4.3
#
DISCID=9f10e70d
DTITLE=Various Artist - Krach test CD C
DYEAR=1900
DGENRE=Country
TTITLE0=Monstrum Sepsis - B-Spline Interface
TTITLE1=Neutral - She will not
TTITLE2=Takashaka - Silicodarwinisim
TTITLE3=Weakener - Sinking
TTITLE4=Beefcake - Kampfer
TTITLE5=Dryft - Avatar [version]
TTITLE6=Substantz T (Feat MC Ronin) - Was it good [remix]
TTITLE7=Sickrobot - Flesh magnet
TTITLE8=Railgun - flak
TTITLE9=The pain machinery - Like a dark storm [exclusive 12" version]
TTITLE10=Mlada Fronta - Ritual [immolation mix by converter]
TTITLE11=Scoria head - deterrent
TTITLE12=Any future - handmade clouds
EXTD=
EXTT0=
EXTT1=
EXTT2=
EXTT3=
EXTT4=
EXTT5=
EXTT6=
EXTT7=
EXTT8=
EXTT9=
EXTT10=
EXTT11=
EXTT12=
PLAYORDER=
